<svg width="136" height="24" viewBox="0 0 136 24" fill="none" xmlns="http://www.w3.org/2000/svg">
<g clip-path="url(#clip0_17_244)">
<path d="M10.92 2.868C11.03 2.67916 11.1877 2.52247 11.3772 2.41357C11.5667 2.30467 11.7814 2.24736 12 2.24736C12.2185 2.24736 12.4333 2.30467 12.6228 2.41357C12.8123 2.52247 12.9699 2.67916 13.08 2.868L15.875 7.666L21.303 8.842C21.5165 8.8884 21.7141 8.98995 21.8761 9.13653C22.0382 9.28312 22.159 9.46961 22.2264 9.67742C22.2939 9.88524 22.3058 10.1071 22.2608 10.3209C22.2158 10.5347 22.1155 10.733 21.97 10.896L18.27 15.037L18.83 20.562C18.8521 20.7796 18.8167 20.9991 18.7274 21.1987C18.6381 21.3983 18.498 21.571 18.3211 21.6996C18.1442 21.8281 17.9367 21.908 17.7192 21.9312C17.5018 21.9544 17.2821 21.9202 17.082 21.832L12 19.592L6.91799 21.832C6.7179 21.9202 6.49818 21.9544 6.28074 21.9312C6.0633 21.908 5.85577 21.8281 5.67886 21.6996C5.50195 21.571 5.36185 21.3983 5.27255 21.1987C5.18326 20.9991 5.14789 20.7796 5.16999 20.562L5.72999 15.037L2.02999 10.897C1.88421 10.734 1.78374 10.5357 1.7386 10.3217C1.69346 10.1078 1.70523 9.88573 1.77273 9.67775C1.84023 9.46978 1.96111 9.28315 2.12329 9.1365C2.28547 8.98984 2.48329 8.8883 2.69699 8.842L8.12499 7.666L10.92 2.868Z" fill="#FBBB00"/>
</g>
<g clip-path="url(#clip1_17_244)">
<path d="M38.92 2.868C39.03 2.67916 39.1877 2.52247 39.3772 2.41357C39.5667 2.30467 39.7814 2.24736 40 2.24736C40.2185 2.24736 40.4333 2.30467 40.6228 2.41357C40.8123 2.52247 40.9699 2.67916 41.08 2.868L43.875 7.666L49.303 8.842C49.5165 8.8884 49.7141 8.98995 49.8761 9.13653C50.0382 9.28312 50.159 9.46961 50.2264 9.67742C50.2939 9.88524 50.3058 10.1071 50.2608 10.3209C50.2158 10.5347 50.1155 10.733 49.97 10.896L46.27 15.037L46.83 20.562C46.8521 20.7796 46.8167 20.9991 46.7274 21.1987C46.6381 21.3983 46.498 21.571 46.3211 21.6996C46.1442 21.8281 45.9367 21.908 45.7192 21.9312C45.5018 21.9544 45.2821 21.9202 45.082 21.832L40 19.592L34.918 21.832C34.7179 21.9202 34.4982 21.9544 34.2807 21.9312C34.0633 21.908 33.8558 21.8281 33.6789 21.6996C33.5019 21.571 33.3618 21.3983 33.2726 21.1987C33.1833 20.9991 33.1479 20.7796 33.17 20.562L33.73 15.037L30.03 10.897C29.8842 10.734 29.7837 10.5357 29.7386 10.3217C29.6935 10.1078 29.7052 9.88573 29.7727 9.67775C29.8402 9.46978 29.9611 9.28315 30.1233 9.1365C30.2855 8.98984 30.4833 8.8883 30.697 8.842L36.125 7.666L38.92 2.868Z" fill="#FBBB00"/>
</g>
<g clip-path="url(#clip2_17_244)">
<path d="M66.92 2.868C67.03 2.67916 67.1877 2.52247 67.3772 2.41357C67.5667 2.30467 67.7814 2.24736 68 2.24736C68.2185 2.24736 68.4333 2.30467 68.6228 2.41357C68.8123 2.52247 68.9699 2.67916 69.08 2.868L71.875 7.666L77.303 8.842C77.5165 8.8884 77.7141 8.98995 77.8761 9.13653C78.0382 9.28312 78.159 9.46961 78.2264 9.67742C78.2939 9.88524 78.3058 10.1071 78.2608 10.3209C78.2158 10.5347 78.1155 10.733 77.97 10.896L74.27 15.037L74.83 20.562C74.8521 20.7796 74.8167 20.9991 74.7274 21.1987C74.6381 21.3983 74.498 21.571 74.3211 21.6996C74.1442 21.8281 73.9367 21.908 73.7192 21.9312C73.5018 21.9544 73.2821 21.9202 73.082 21.832L68 19.592L62.918 21.832C62.7179 21.9202 62.4982 21.9544 62.2807 21.9312C62.0633 21.908 61.8558 21.8281 61.6789 21.6996C61.5019 21.571 61.3618 21.3983 61.2726 21.1987C61.1833 20.9991 61.1479 20.7796 61.17 20.562L61.73 15.037L58.03 10.897C57.8842 10.734 57.7837 10.5357 57.7386 10.3217C57.6935 10.1078 57.7052 9.88573 57.7727 9.67775C57.8402 9.46978 57.9611 9.28315 58.1233 9.1365C58.2855 8.98984 58.4833 8.8883 58.697 8.842L64.125 7.666L66.92 2.868Z" fill="#FBBB00"/>
</g>
<g clip-path="url(#clip3_17_244)">
<path d="M94.92 2.868C95.03 2.67916 95.1877 2.52247 95.3772 2.41357C95.5667 2.30467 95.7814 2.24736 96 2.24736C96.2185 2.24736 96.4333 2.30467 96.6228 2.41357C96.8123 2.52247 96.9699 2.67916 97.08 2.868L99.875 7.666L105.303 8.842C105.516 8.8884 105.714 8.98995 105.876 9.13653C106.038 9.28312 106.159 9.46961 106.226 9.67742C106.294 9.88524 106.306 10.1071 106.261 10.3209C106.216 10.5347 106.116 10.733 105.97 10.896L102.27 15.037L102.83 20.562C102.852 20.7796 102.817 20.9991 102.727 21.1987C102.638 21.3983 102.498 21.571 102.321 21.6996C102.144 21.8281 101.937 21.908 101.719 21.9312C101.502 21.9544 101.282 21.9202 101.082 21.832L96 19.592L90.918 21.832C90.7179 21.9202 90.4982 21.9544 90.2807 21.9312C90.0633 21.908 89.8558 21.8281 89.6789 21.6996C89.5019 21.571 89.3618 21.3983 89.2726 21.1987C89.1833 20.9991 89.1479 20.7796 89.17 20.562L89.73 15.037L86.03 10.897C85.8842 10.734 85.7837 10.5357 85.7386 10.3217C85.6935 10.1078 85.7052 9.88573 85.7727 9.67775C85.8402 9.46978 85.9611 9.28315 86.1233 9.1365C86.2855 8.98984 86.4833 8.8883 86.697 8.842L92.125 7.666L94.92 2.868Z" fill="#FBBB00"/>
</g>
<g clip-path="url(#clip4_17_244)">
<path d="M122.92 2.868C123.03 2.67916 123.188 2.52247 123.377 2.41357C123.567 2.30467 123.781 2.24736 124 2.24736C124.219 2.24736 124.433 2.30467 124.623 2.41357C124.812 2.52247 124.97 2.67916 125.08 2.868L127.875 7.666L133.303 8.842C133.516 8.8884 133.714 8.98995 133.876 9.13653C134.038 9.28312 134.159 9.46961 134.226 9.67742C134.294 9.88524 134.306 10.1071 134.261 10.3209C134.216 10.5347 134.116 10.733 133.97 10.896L130.27 15.037L130.83 20.562C130.852 20.7796 130.817 20.9991 130.727 21.1987C130.638 21.3983 130.498 21.571 130.321 21.6996C130.144 21.8281 129.937 21.908 129.719 21.9312C129.502 21.9544 129.282 21.9202 129.082 21.832L124 19.592L118.918 21.832C118.718 21.9202 118.498 21.9544 118.281 21.9312C118.063 21.908 117.856 21.8281 117.679 21.6996C117.502 21.571 117.362 21.3983 117.273 21.1987C117.183 20.9991 117.148 20.7796 117.17 20.562L117.73 15.037L114.03 10.897C113.884 10.734 113.784 10.5357 113.739 10.3217C113.693 10.1078 113.705 9.88573 113.773 9.67775C113.84 9.46978 113.961 9.28315 114.123 9.1365C114.285 8.98984 114.483 8.8883 114.697 8.842L120.125 7.666L122.92 2.868Z" fill="#FBBB00"/>
</g>
<defs>
<clipPath id="clip0_17_244">
<rect width="24" height="24" fill="white"/>
</clipPath>
<clipPath id="clip1_17_244">
<rect width="24" height="24" fill="white" transform="translate(28)"/>
</clipPath>
<clipPath id="clip2_17_244">
<rect width="24" height="24" fill="white" transform="translate(56)"/>
</clipPath>
<clipPath id="clip3_17_244">
<rect width="24" height="24" fill="white" transform="translate(84)"/>
</clipPath>
<clipPath id="clip4_17_244">
<rect width="24" height="24" fill="white" transform="translate(112)"/>
</clipPath>
</defs>
</svg>
