<svg width="144" height="144" viewBox="0 0 144 144" fill="none" xmlns="http://www.w3.org/2000/svg">
<rect width="144" height="144" rx="72" fill="#FADF7F"/>
<path d="M45 46C45 49.3137 42.3137 52 39 52C35.6863 52 33 49.3137 33 46C33 42.6863 35.6863 40 39 40C42.3137 40 45 42.6863 45 46Z" fill="#2F3B4A"/>
<path d="M111 46C111 49.3137 108.314 52 105 52C101.686 52 99 49.3137 99 46C99 42.6863 101.686 40 105 40C108.314 40 111 42.6863 111 46Z" fill="#2F3B4A"/>
<path fill-rule="evenodd" clip-rule="evenodd" d="M72 52C79.7295 52 88.081 56.2971 89.9412 65.4632C90.2661 67.0643 89.2125 68.6218 87.5878 68.942C85.9632 69.2622 84.3828 68.2239 84.0579 66.6228C82.9182 61.0068 77.77 57.9128 72 57.9128C66.23 57.9128 61.0818 61.0068 59.9421 66.6228C59.6172 68.2239 58.0368 69.2622 56.4122 68.942C54.7875 68.6218 53.7339 67.0643 54.0588 65.4632C55.919 56.2971 64.2705 52 72 52Z" fill="#2F3B4A"/>
</svg>
