<svg width="144" height="144" viewBox="0 0 144 144" fill="none" xmlns="http://www.w3.org/2000/svg">
<rect width="144" height="144" rx="72" fill="#FADF7F"/>
<path d="M45 46C45 49.3137 42.3137 52 39 52C35.6863 52 33 49.3137 33 46C33 42.6863 35.6863 40 39 40C42.3137 40 45 42.6863 45 46Z" fill="#2F3B4A"/>
<path d="M111 46C111 49.3137 108.314 52 105 52C101.686 52 99 49.3137 99 46C99 42.6863 101.686 40 105 40C108.314 40 111 42.6863 111 46Z" fill="#2F3B4A"/>
<mask id="mask0_13_1047" style="mask-type:alpha" maskUnits="userSpaceOnUse" x="42" y="58" width="60" height="27">
<path d="M71.9999 60.0354C57.8826 60.295 45.4532 54.0339 42.5036 63.0347C39.5541 72.0355 49.5829 85 72.0001 85C94.4173 85 104.446 72.0354 101.496 63.0351C98.5465 54.0348 84.9919 59.7964 71.9999 60.0354Z" fill="#2F3B4A"/>
</mask>
<g mask="url(#mask0_13_1047)">
<path d="M71.9999 60.0354C57.8826 60.295 45.4532 54.0339 42.5036 63.0347C39.5541 72.0355 49.5829 85 72.0001 85C94.4173 85 104.446 72.0354 101.496 63.0351C98.5465 54.0348 84.9919 59.7964 71.9999 60.0354Z" fill="#2F3B4A"/>
<path d="M168 -29C168 24.0193 125.019 67 72 67C18.9807 67 -24 24.0193 -24 -29C-24 -82.0193 18.9807 -125 72 -125C125.019 -125 168 -82.0193 168 -29Z" fill="#F7F8FA"/>
</g>
</svg>
