<svg width="64" height="64" viewBox="0 0 64 64" fill="none" xmlns="http://www.w3.org/2000/svg">
<path d="M14.1838 38.676L11.956 46.9925L3.81363 47.1647C1.38025 42.6514 0 37.4875 0 32C0 26.6936 1.2905 21.6896 3.578 17.2835H3.57975L10.8287 18.6125L14.0042 25.818C13.3396 27.7556 12.9774 29.8356 12.9774 32C12.9776 34.349 13.4031 36.5996 14.1838 38.676Z" fill="#FBBB00"/>
<path d="M63.4409 26.022C63.8084 27.9577 64 29.9569 64 32C64 34.291 63.7591 36.5257 63.3002 38.6814C61.7425 46.0167 57.6721 52.422 52.0335 56.9548L52.0317 56.953L42.9012 56.4871L41.609 48.4202C45.3505 46.226 48.2745 42.7921 49.8147 38.6814H32.7035V26.022H63.4409Z" fill="#518EF8"/>
<path d="M52.0316 56.953L52.0333 56.9548C46.5495 61.3626 39.5832 64 32 64C19.8136 64 9.21847 57.1886 3.8136 47.1649L14.1837 38.6761C16.8861 45.8884 23.8435 51.0225 32 51.0225C35.5058 51.0225 38.7903 50.0747 41.6087 48.4202L52.0316 56.953Z" fill="#28B446"/>
<path d="M52.4255 7.367L42.0589 15.854C39.142 14.0308 35.694 12.9775 32 12.9775C23.6589 12.9775 16.5714 18.3471 14.0044 25.818L3.57975 17.2835H3.578C8.90375 7.01538 19.6325 0 32 0C39.7644 0 46.8835 2.76575 52.4255 7.367Z" fill="#F14336"/>
</svg>
